{"title":"Later, With Jools Holland.s36eo7.(28th May 2010)[DTV-RIP-Divx]","uid":5598213,"size":732996051,"categoryP":"video","categoryS":"music_videos","magnet":"?xt=urn:btih:c7b5857131d057f7dd8944789a565b5c4725836f&amp;dn=Later%2C+With+Jools+Holland.s36eo7.%2828th+May+2010%29%5BDTV-RIP-Divx%5D&amp;tr=udp%3A%2F%2Ftracker.openbittorrent.com%3A80&amp;tr=udp%3A%2F%2Fopen.demonii.com%3A1337&amp;tr=udp%3A%2F%2Ftracker.coppersurfer.tk%3A6969&amp;tr=udp%3A%2F%2Fexodus.desync.com%3A6969","seeders":1,"leechers":0,"uploader":"seanprince","files":-1,"time":1275093504,"description":"Later, With Jools Holland.s36eo7.(28th May 2010)[DTV-RIP-Divx]\n\nFirst Shown On BBC 2 On Friday 28th May 2010\n\nDescription:\n\nJoining Jools for the final show of the series are New York-based Vampire Weekend, whose second album Contra saw them top the US charts earlier this year; Leeds-born singer-songwriter Corinne Bailey Rae, with tracks from her second album The Sea; MGMT, whose new album Congratulations sees the duo explore a more psychedelic side to their sound, working with the likes of Sonic Boom; and Canadian duo Crystal Castles who are in the studio to perform a song or two from their acclaimed self-titled second album. Plus the legendary Sir Tom Jones makes an appearance on the show ahead of his 70th birthday, and, from Toronto, four piece indie rock band Metric make their UK TV debut.\n\nTom Jones\n\nAhead of his 70th birthday Welsh singing legend Tom Jones returns to Later to play tracks from his forthcoming covers album, which goes by the name of Praise and Blame.\n\nMGMT\n\nMGMT hail from Brooklyn, New Jersey and return to the Later studio for the second time, playing us tracks from their recently released second album Congratulations.\n\nVampire Weekend\n\nAfter a very successful year with album Contra making number 1 in the US, Vampire Weekend join us in the studio, having made their TV debut here in 2008.\n\nCrystal Castles\n\nFollowing the release of their second self-titled album this month lo-fi electro-noise duo Crystal Castles make their debut in the Later studio.\n\nMetric\n\nCanadian indie band Metric have recently returned from various solo projects to record their fourth album Fantasies. This will be their Later debut.\n\nCorinne Bailey Rae\n\nAfter playing for us at the piano last year Corinne Bailey Rae returns with her band to play tracks from her latest album, The Sea.\n\n\nGeneral\n\nComplete name : Later, With Jools Holland.s36eo7.divx\nFormat : AVI\nFormat/Info : Audio Video Interleave\nFile size : 699 MiB\nDuration : 1h 2mn\nOverall bit rate : 1 566 Kbps\n\nVideo\nID : 0\nFormat : MPEG-4 Visual\nFormat settings, BVOP : Yes\nFormat settings, QPel : No\nFormat settings, GMC : No warppoints\nFormat settings, Matrix : Default (H.263)\nMuxing mode : Packed bitstream\nCodec ID : DX50\nCodec ID/Hint : DivX 5\nDuration : 1h 2mn\nBit rate : 1 300 Kbps\nWidth : 688 pixels\nHeight : 384 pixels\nDisplay aspect ratio : 16/9\nFrame rate : 25.000 fps\nResolution : 24 bits\nColorimetry : 4:2:0\nScan type : Progressive\nBits/(Pixel*Frame) : 0.197\nStream size : 580 MiB (83%)\nTitle : Video\nWriting library : DivX 6.8.2 (UTC 2008-05-17)\n\nAudio\nID : 1\nFormat : AC-3\nFormat/Info : Audio Coding 3\nCodec ID : 2000\nDuration : 1h 2mn\nBit rate mode : Constant\nBit rate : 256 Kbps\nChannel(s) : 2 channels\nChannel positions : L R\nSampling rate : 48.0 KHz\nStream size : 114 MiB (16%)\nAlignment : Split accross interleaves\nInterleave, duration : 40 ms (1.00 video frame)\nInterleave, preload duration : 500 ms ","torrent":{"xt":"urn:btih:c7b5857131d057f7dd8944789a565b5c4725836f","amp;dn":"Later%2C+With+Jools+Holland.s36eo7.%2828th+May+2010%29%5BDTV-RIP-Divx%5D","amp;tr":["udp%3A%2F%2Ftracker.openbittorrent.com%3A80","udp%3A%2F%2Fopen.demonii.com%3A1337","udp%3A%2F%2Ftracker.coppersurfer.tk%3A6969","udp%3A%2F%2Fexodus.desync.com%3A6969"],"infoHash":"c7b5857131d057f7dd8944789a565b5c4725836f","infoHashBuffer":{"type":"Buffer","data":[199,181,133,113,49,208,87,247,221,137,68,120,154,86,91,92,71,37,131,111]},"announce":[],"urlList":[]}}